{"accessors":[{"bufferView":2,"componentType":5126,"count":36482,"max":[-0.10225673019886017,0.24774326384067535,0.46180778741836548],"min":[-0.59774327278137207,-0.24774326384067535,-0.48844879865646362],"type":"VEC3"},{"bufferView":2,"byteOffset":437784,"componentType":5126,"count":36482,"max":[0.99971109628677368,0.99908292293548584,1],"min":[-0.99949389696121216,-0.99908292293548584,-1],"type":"VEC3"},{"bufferView":0,"componentType":5125,"count":56148,"max":[36481],"min":[0],"type":"SCALAR"},{"bufferView":2,"byteOffset":875568,"componentType":5126,"count":3168,"max":[-0.10141578316688538,0.24858421087265015,0.44023284316062927],"min":[-0.59858417510986328,-0.24858421087265015,-0.42831379175186157],"type":"VEC3"},{"bufferView":2,"byteOffset":913584,"componentType":5126,"count":3168,"max":[1,1,0.55439305305480957],"min":[-1,-1,-0.99822711944580078],"type":"VEC3"},{"bufferView":1,"componentType":5126,"count":3168,"max":[1,1],"min":[0.010416486300528049,0.0039602220058441162],"type":"VEC2"},{"bufferView":3,"componentType":5126,"count":3168,"max":[1,1,0.01541738398373127,1],"min":[-1,-1,-0.015473640523850918,1],"type":"VEC4"},{"bufferView":0,"byteOffset":224592,"componentType":5125,"count":18432,"max":[3167],"min":[0],"type":"SCALAR"}],"asset":{"generator":"Sketchfab (OSG glTF plugin)","version":"2.0"},"bufferViews":[{"buffer":0,"byteLength":298320,"byteOffset":0,"name":"ScalarBufferView","target":34962},{"buffer":0,"byteLength":25344,"byteOffset":298320,"byteStride":8,"name":"Vec2BufferView","target":34962},{"buffer":0,"byteLength":951600,"byteOffset":323664,"byteStride":12,"name":"Vec3BufferView","target":34962},{"buffer":0,"byteLength":50688,"byteOffset":1275264,"byteStride":16,"name":"Vec4BufferView","target":34962}],"buffers":[{"byteLength":1325952,"uri":"scene.bin"}],"images":[{"uri":"textures\/material_1_baseColor.jpg"}],"materials":[{"doubleSided":true,"emissiveFactor":[0,0,0],"name":"material_0","pbrMetallicRoughness":{"baseColorFactor":[0.47348012859999999,0.47348012859999999,0.47348012859999999,1],"metallicFactor":0.31624742420000002,"roughnessFactor":0.21834377069999999}},{"doubleSided":true,"emissiveFactor":[0,0,0],"name":"material_1","pbrMetallicRoughness":{"baseColorFactor":[1,1,1,1],"baseColorTexture":{"index":0,"texCoord":0},"metallicFactor":0.58039836759999996,"roughnessFactor":0.16173999709999998}}],"meshes":[{"name":"Default","primitives":[{"attributes":{"NORMAL":1,"POSITION":0},"indices":2,"material":0,"mode":4},{"attributes":{"NORMAL":4,"POSITION":3,"TANGENT":6,"TEXCOORD_0":5},"indices":7,"material":1,"mode":4}]}],"nodes":[{"children":[1],"name":"RootNode (gltf orientation matrix)","rotation":[-0.70710678118654746,-0,-0,0.70710678118654757]},{"children":[2],"name":"RootNode (model correction matrix)"},{"children":[3],"name":"cocaCola.lwo"},{"mesh":0,"name":"Default"}],"samplers":[{"magFilter":9729,"minFilter":9987,"wrapS":10497,"wrapT":10497}],"scene":0,"scenes":[{"name":"OSG_Scene","nodes":[0]}],"textures":[{"sampler":0,"source":0}]}
